<svg xmlns="http://www.w3.org/2000/svg" version="1.1" width="24px" height="24px" viewBox="0 0 24 24" style="shape-rendering:geometricPrecision; text-rendering:geometricPrecision; image-rendering:optimizeQuality; fill-rule:evenodd; clip-rule:evenodd">
    <g><path style="opacity:0.986" fill="#fff" d="M 457.5,-0.5 C 465.167,-0.5 472.833,-0.5 480.5,-0.5C 512.351,3.39436 542.351,13.2277 570.5,29C 601.923,51.3209 603.59,75.6542 575.5,102C 565.937,106.78 555.937,107.78 545.5,105C 528.364,98.766 511.697,91.4327 495.5,83C 479.955,75.3793 464.622,75.7126 449.5,84C 440.001,89.8299 435.334,98.3299 435.5,109.5C 435.75,115.249 436.583,120.916 438,126.5C 442.203,140.108 446.203,153.774 450,167.5C 533.106,171.549 600.106,206.216 651,271.5C 678.013,307.858 694.18,348.525 699.5,393.5C 699.5,407.833 699.5,422.167 699.5,436.5C 693.692,487.767 674.192,533.1 641,572.5C 573.564,647.635 489.397,689.969 388.5,699.5C 371.167,699.5 353.833,699.5 336.5,699.5C 262.931,692.479 195.598,668.312 134.5,627C 56.4093,569.343 11.4093,492.176 -0.5,395.5C -0.5,379.5 -0.5,363.5 -0.5,347.5C 10.6195,252.065 54.6195,175.898 131.5,119C 159.977,97.7544 190.643,80.0878 223.5,66C 238.643,59.814 253.977,58.814 269.5,63C 291.493,73.1525 299.993,89.9859 295,113.5C 290.92,123.914 283.754,131.414 273.5,136C 234.181,147.485 199.181,166.485 168.5,193C 138.169,223.353 115.003,258.519 99,298.5C 78.7306,358.81 83.3973,417.143 113,473.5C 166.191,567.211 247.025,615.544 355.5,618.5C 426.292,617.63 489.292,595.463 544.5,552C 574.729,526.045 595.229,493.878 606,455.5C 619.691,376.189 593.191,314.356 526.5,270C 511.247,261.043 494.914,254.877 477.5,251.5C 476.833,251.833 476.167,252.167 475.5,252.5C 486.714,282.975 496.214,313.975 504,345.5C 510.086,368.136 508.42,390.136 499,411.5C 473.881,462.942 433.048,493.442 376.5,503C 326.349,508.064 283.516,492.897 248,457.5C 212.2,412.52 200.866,361.853 214,305.5C 221.827,276.665 236.661,252.165 258.5,232C 276.453,217.018 295.786,204.018 316.5,193C 330.96,187.352 345.46,181.852 360,176.5C 355.974,160.41 351.307,144.41 346,128.5C 340.348,101.426 345.681,76.7595 362,54.5C 386.004,22.5812 417.837,4.2479 457.5,-0.5 Z M 377.5,255.5 C 380.167,255.5 382.833,255.5 385.5,255.5C 386.5,264.333 388.333,273 391,281.5C 399.14,303.919 406.473,326.586 413,349.5C 421.5,386.684 407.667,410.851 371.5,422C 341.569,427.784 319.402,417.284 305,390.5C 288.342,352.433 294.009,318.099 322,287.5C 337.509,271.5 356.009,260.833 377.5,255.5 Z"/></g>
</svg>